<svg xmlns="http://www.w3.org/2000/svg" width="2017.959" height="319.571" viewBox="0 0 2017.959 319.571">
  <g id="Groupe_154" data-name="Groupe 154" transform="translate(59.549 -3587.741)">
    <path id="Tracé_220" data-name="Tracé 220" d="M0,0H1920V271.259H0Z" transform="translate(0 3587.741)" fill="#2e3946"/>
    <g id="Groupe_106" data-name="Groupe 106" transform="translate(137.588 3723.5)">
      <g id="Groupe_90" data-name="Groupe 90" transform="translate(26.909 87.363)">
        <path id="Tracé_158" data-name="Tracé 158" d="M704.373,1711.082l-27.548-26.193-21.444,27.625L692.8,1740.1Z" transform="translate(-649.934 -1679.47)" fill="#f7ac6f"/>
        <path id="Tracé_159" data-name="Tracé 159" d="M684.721,1739.649,647.3,1712.06a5.4,5.4,0,0,1-1.068-7.667l21.444-27.625a5.463,5.463,0,0,1,8.073-.605l27.548,26.193a5.4,5.4,0,0,1,1.3,5.917l-11.576,29.023a5.46,5.46,0,0,1-8.305,2.355ZM672.6,1688.157l-14.35,18.486,27.261,20.1,7.609-19.076Z" transform="translate(-645.101 -1674.661)" fill="#f7ac6f"/>
      </g>
      <path id="Tracé_160" data-name="Tracé 160" d="M725.075,1713.219s7.948,37.041-8.142,42.341c-9.793,3.226-11.248-.009-23.969-8.4-9.676-7-2.319-20.517,8-23.685-1.42-2.35,2.5-6.659,7.324-12.248C713.853,1704.778,718.6,1708.008,725.075,1713.219Z" transform="translate(-638.57 -1602.804)" fill="#f8bd83"/>
      <path id="Tracé_161" data-name="Tracé 161" d="M647.313,1666.554a5.47,5.47,0,0,0,5.908-.884l9.212-8.195a5.4,5.4,0,0,0,.449-7.631l-26.7-30.025a5.464,5.464,0,0,0-7.688-.468,5.4,5.4,0,0,0-.47,7.649l23.108,25.988-1.329,1.183-23.452-23.386a5.467,5.467,0,0,0-7.7-.008,5.4,5.4,0,0,0-.008,7.663l27.094,27.017A5.437,5.437,0,0,0,647.313,1666.554Z" transform="translate(-605.003 -1560.653)" fill="#f7ac6f"/>
      <path id="Tracé_162" data-name="Tracé 162" d="M624.391,1708.023a5.463,5.463,0,0,0,6.783-1.88l5.882-8.621a5.4,5.4,0,0,0-.865-7.073l-27.048-24.194a5.465,5.465,0,0,0-7.691.407,5.4,5.4,0,0,0,.409,7.653l23.226,20.776-22.028-16.7a5.467,5.467,0,0,0-7.633,1.027,5.4,5.4,0,0,0,1.033,7.595l26.91,20.394A5.45,5.45,0,0,0,624.391,1708.023Z" transform="translate(-594.312 -1582.692)" fill="#f7ac6f"/>
      <g id="Groupe_91" data-name="Groupe 91" transform="translate(1.356)">
        <path id="Tracé_163" data-name="Tracé 163" d="M600.147,1618.506l46.873,21.458a5.638,5.638,0,0,0,7.463-2.746l45.339-98.049a5.586,5.586,0,0,0-2.759-7.426l-46.873-21.458a5.638,5.638,0,0,0-7.463,2.746l-45.339,98.049A5.587,5.587,0,0,0,600.147,1618.506Z" transform="translate(-596.871 -1509.771)" fill="#fff"/>
        <path id="Tracé_164" data-name="Tracé 164" d="M619.174,1611.275l41.3,18.908a3.865,3.865,0,0,0,5.116-1.882l36.951-79.91a3.829,3.829,0,0,0-1.892-5.09l-41.3-18.908a3.864,3.864,0,0,0-5.115,1.882l-36.951,79.91A3.83,3.83,0,0,0,619.174,1611.275Z" transform="translate(-606.301 -1516.481)" fill="#cecece"/>
        <path id="Tracé_165" data-name="Tracé 165" d="M727.717,1533.561l9.611,4.4a1.425,1.425,0,0,0,1.886-.694h0a1.412,1.412,0,0,0-.7-1.877l-9.611-4.4a1.425,1.425,0,0,0-1.886.694h0A1.412,1.412,0,0,0,727.717,1533.561Z" transform="translate(-658.002 -1519.687)" fill="#f90"/>
        <ellipse id="Ellipse_50" data-name="Ellipse 50" cx="1.422" cy="1.415" rx="1.422" ry="1.415" transform="translate(53.93 4.326)" fill="#f90"/>
        <ellipse id="Ellipse_51" data-name="Ellipse 51" cx="4.266" cy="4.244" rx="4.266" ry="4.244" transform="translate(25.894 107.764)" fill="#f90"/>
        <ellipse id="Ellipse_52" data-name="Ellipse 52" cx="1.422" cy="1.415" rx="1.422" ry="1.415" transform="translate(64.795 9.3)" fill="#f90"/>
        <path id="Tracé_166" data-name="Tracé 166" d="M670.719,1532.724l.611.28,3.789-8.194h0a1.144,1.144,0,0,0-1.513.557l-3.116,6.74A.465.465,0,0,0,670.719,1532.724Z" transform="translate(-631.464 -1516.793)" fill="#f90"/>
        <path id="Tracé_167" data-name="Tracé 167" d="M666.668,1541.714l.611.28-3.789,8.194h0a1.133,1.133,0,0,1-.56-1.506l3.117-6.739A.468.468,0,0,1,666.668,1541.714Z" transform="translate(-627.881 -1524.77)" fill="#f90"/>
        <path id="Tracé_168" data-name="Tracé 168" d="M650.6,1578.26h0l3.789-8.194h0a1.143,1.143,0,0,0-1.513.557l-2.836,6.132A1.133,1.133,0,0,0,650.6,1578.26Z" transform="translate(-621.82 -1538.071)" fill="#f90"/>
      </g>
      <path id="Tracé_169" data-name="Tracé 169" d="M618.562,1610.916l42.233,19.333a3.353,3.353,0,0,0,4.438-1.632l37.378-80.833a3.323,3.323,0,0,0-1.641-4.416l-42.233-19.333a3.352,3.352,0,0,0-4.438,1.633L616.921,1606.5A3.323,3.323,0,0,0,618.562,1610.916Z" transform="translate(-604.797 -1516.333)" fill="#cecece"/>
      <g id="Groupe_93" data-name="Groupe 93" transform="translate(30.163 51.887)">
        <path id="Tracé_170" data-name="Tracé 170" d="M687,1620.975c-6.3-2.776-10.8-10.418-10.8-10.418-3.228,5.227-9.644,3.21-9.644,3.21-7.841-2.465-3.864-5.115-6.716-6.012s-7.168,10.229-7.168,10.229l-1.352,4.256a1.487,1.487,0,0,0,.975,1.867l27.8,8.74a33.134,33.134,0,0,0,10.979,1.2,2.98,2.98,0,0,0,2.625-2.071l1.218-3.835C695.813,1625.307,693.186,1623.7,687,1620.975Z" transform="translate(-651.241 -1607.703)" fill="#f90"/>
        <path id="Tracé_171" data-name="Tracé 171" d="M696.173,1628.144a32.26,32.26,0,0,1-13.02-.973l-29.228-9.188s4.316-11.125,7.168-10.229-1.126,3.547,6.716,6.012c0,0,6.416,2.017,9.644-3.21,0,0,4.5,7.642,10.8,10.418C694.448,1623.7,697.074,1625.307,696.173,1628.144Z" transform="translate(-652.503 -1607.703)" fill="#f90"/>
        <path id="Tracé_172" data-name="Tracé 172" d="M665.625,1612.035c-2.348,2.97-6.306,2.384-8.27,1.853,1.514-3.07,3.682-6.658,5.35-6.134C664.891,1608.442,663.064,1610.16,665.625,1612.035Z" transform="translate(-654.116 -1607.703)" fill="#f9b835"/>
        <path id="Tracé_173" data-name="Tracé 173" d="M701.234,1636.9a32.257,32.257,0,0,1-13.02-.973l-23.526-7.4s4.2-3.359,9.193-1.79,7.392,3.884,13.807,5.9a15.488,15.488,0,0,0,10.311-.656C700.785,1633.553,701.859,1634.929,701.234,1636.9Z" transform="translate(-657.564 -1616.457)" fill="#f9b835"/>
        <g id="Groupe_92" data-name="Groupe 92" transform="translate(4.61 15.585)">
          <path id="Tracé_174" data-name="Tracé 174" d="M661.818,1638.086l-.45,1.418-1.426-.448.45-1.418a.747.747,0,0,1,1.426.448Z" transform="translate(-659.942 -1637.118)" fill="#fff"/>
          <path id="Tracé_175" data-name="Tracé 175" d="M672.582,1641.47l-.45,1.418-1.426-.448.45-1.418a.747.747,0,0,1,1.426.448Z" transform="translate(-665.003 -1638.709)" fill="#fff"/>
          <path id="Tracé_176" data-name="Tracé 176" d="M683.346,1644.853l-.45,1.419-1.426-.448.45-1.419a.747.747,0,0,1,1.426.448Z" transform="translate(-670.064 -1640.3)" fill="#fff"/>
          <path id="Tracé_177" data-name="Tracé 177" d="M694.11,1648.237l-.45,1.419-1.426-.448.45-1.419a.747.747,0,0,1,1.426.448Z" transform="translate(-675.125 -1641.89)" fill="#fff"/>
          <path id="Tracé_178" data-name="Tracé 178" d="M704.874,1651.621l-.45,1.418-1.426-.448.45-1.419a.747.747,0,0,1,1.426.448Z" transform="translate(-680.186 -1643.481)" fill="#fff"/>
          <path id="Tracé_179" data-name="Tracé 179" d="M715.99,1653.666l-.461,1.451c-.525-.051-1.025-.113-1.5-.181a.752.752,0,0,1,.029-.127l.505-1.592a.747.747,0,0,1,1.426.448Z" transform="translate(-685.373 -1644.443)" fill="#fff"/>
        </g>
        <path id="Tracé_180" data-name="Tracé 180" d="M705.167,1620.789c-2.012.782-4.635.593-7.565-1.523a44.1,44.1,0,0,1-5.9-5.784,2.966,2.966,0,0,1,.1-4.036l1.6-1.642s5.727,10.039,11.765,12.985Z" transform="translate(-669.916 -1607.751)" fill="#f9b835"/>
        <path id="Tracé_181" data-name="Tracé 181" d="M694.96,1622a.742.742,0,0,1-.281-1.256l4.428-4.069a.75.75,0,0,1,1.057.04.741.741,0,0,1-.041,1.051v0l-4.428,4.069a.751.751,0,0,1-.733.163Z" transform="translate(-671.551 -1611.828)" fill="#fff"/>
        <path id="Tracé_182" data-name="Tracé 182" d="M699.492,1626.368a.742.742,0,0,1-.281-1.256l4.428-4.069a.75.75,0,0,1,1.057.04.742.742,0,0,1-.041,1.051h0l-4.428,4.069A.751.751,0,0,1,699.492,1626.368Z" transform="translate(-673.682 -1613.883)" fill="#fff"/>
      </g>
      <ellipse id="Ellipse_53" data-name="Ellipse 53" cx="4.37" cy="4.349" rx="4.37" ry="4.349" transform="translate(48.788 10.878)" fill="#f90"/>
      <ellipse id="Ellipse_54" data-name="Ellipse 54" cx="4.37" cy="4.349" rx="4.37" ry="4.349" transform="translate(58.258 15.214)" fill="#f9b835"/>
      <ellipse id="Ellipse_55" data-name="Ellipse 55" cx="4.37" cy="4.349" rx="4.37" ry="4.349" transform="translate(67.728 19.549)" fill="#bb4926"/>
      <ellipse id="Ellipse_56" data-name="Ellipse 56" cx="4.37" cy="4.349" rx="4.37" ry="4.349" transform="translate(77.198 23.884)" fill="#445a72"/>
      <ellipse id="Ellipse_57" data-name="Ellipse 57" cx="4.37" cy="4.349" rx="4.37" ry="4.349" transform="translate(86.669 28.22)" fill="#232f3e"/>
      <path id="Tracé_183" data-name="Tracé 183" d="M695.926,1564.071a.65.65,0,0,0,.077,1.039.881.881,0,0,0,.58.181c.229,0,.519-.123.735-.019.2.1.34.344.5.5a3.33,3.33,0,0,0,.654.474c.512.3,1.067.533,1.6.788l6.788,3.243,3.822,1.826a.336.336,0,0,0,.281-.609l-6.134-2.931-3.117-1.489c-.969-.463-1.986-.877-2.917-1.412a2.679,2.679,0,0,1-.669-.538,1.69,1.69,0,0,0-.562-.473,1.332,1.332,0,0,0-.706-.058,1.2,1.2,0,0,1-.333.035.205.205,0,0,1-.084-.026l-.052-.044q-.048-.108-.073.068c.319-.285-.064-.837-.386-.55Z" transform="translate(-641.982 -1535.264)" fill="#232f3e"/>
      <path id="Tracé_184" data-name="Tracé 184" d="M627.7,1676.037a3.458,3.458,0,0,1-3.282-3.064,1.429,1.429,0,0,0-1.891.7,2.589,2.589,0,0,0,.141,2.4,7.732,7.732,0,0,1,.994,1.909l-.007.016.008-.006v.01l.007-.016a7.846,7.846,0,0,1,2.1-.491A2.61,2.61,0,0,0,627.7,1676.037Z" transform="translate(-607.474 -1586.443)" fill="#8c371d"/>
      <g id="Groupe_94" data-name="Groupe 94" transform="translate(19.925 90.292)">
        <ellipse id="Ellipse_58" data-name="Ellipse 58" cx="2.476" cy="2.463" rx="2.476" ry="2.463" transform="translate(2.221)" fill="#8c371d"/>
        <path id="Tracé_185" data-name="Tracé 185" d="M636.365,1685.859l-4.447.02,3.544,1.622Z" transform="translate(-631.918 -1682.855)" fill="#8c371d"/>
      </g>
      <g id="Groupe_95" data-name="Groupe 95" transform="translate(29.096 93.68)">
        <path id="Tracé_186" data-name="Tracé 186" d="M651.225,1690.122l-1.273,1.743,7.982-1.089Z" transform="translate(-649.568 -1688.247)" fill="#aa3b22"/>
        <path id="Tracé_187" data-name="Tracé 187" d="M652.681,1691.324l.614,2.513,5.922-2.5Z" transform="translate(-650.851 -1688.813)" fill="#bb4926"/>
        <path id="Tracé_188" data-name="Tracé 188" d="M650.884,1688.458l-1.657-1.875,8.366,2.528Z" transform="translate(-649.227 -1686.583)" fill="#bb4926"/>
        <path id="Tracé_189" data-name="Tracé 189" d="M651.4,1691.324l-1.446,1.105,1.66-.227Z" transform="translate(-649.568 -1688.813)" fill="#bb4926"/>
      </g>
      <g id="Groupe_96" data-name="Groupe 96" transform="translate(15.47 28.781)">
        <path id="Tracé_190" data-name="Tracé 190" d="M648.617,1564.093l48.494,21.6-25.337,54.793-48.264-22.094Z" transform="translate(-623.509 -1564.093)" fill="#232f3e"/>
        <path id="Tracé_191" data-name="Tracé 191" d="M643.11,1586.894s5.331-3.937,14.886,2.542,16.814,23.041,35.009,16.026l-8.922,19.3s-5.093,5.717-11.468,5.979c-8.808.363-16.819-7.948-24.524-8.367s-19.58,6.7-23.865,5.363Z" transform="translate(-623.846 -1574.256)" fill="#38485b"/>
      </g>
      <g id="Groupe_98" data-name="Groupe 98" transform="translate(30.971 52.703)">
        <path id="Tracé_192" data-name="Tracé 192" d="M685.971,1621.583c-6.036-2.215-10.682-9.069-10.682-9.069-2.7,5.058-8.792,3.556-8.792,3.556-7.45-1.835-3.9-4.537-6.612-5.205s-6.07,9.949-6.07,9.949l-1.006,4.044a1.389,1.389,0,0,0,1.019,1.682l26.416,6.507a30.941,30.941,0,0,0,10.3.477,2.78,2.78,0,0,0,2.322-2.083l.906-3.644C694.44,1625.1,691.9,1623.758,685.971,1621.583Z" transform="translate(-652.766 -1609.992)" fill="#f90"/>
        <path id="Tracé_193" data-name="Tracé 193" d="M694.7,1627.8a30.108,30.108,0,0,1-12.185-.14l-27.771-6.841s3.361-10.616,6.07-9.949-.838,3.37,6.612,5.205c0,0,6.1,1.5,8.792-3.556,0,0,4.647,6.854,10.682,9.069C692.828,1623.758,695.37,1625.1,694.7,1627.8Z" transform="translate(-653.696 -1609.992)" fill="#f90"/>
        <path id="Tracé_194" data-name="Tracé 194" d="M665.074,1614.68c-2.011,2.9-5.732,2.591-7.594,2.213,1.228-2.949,3.035-6.418,4.62-6.028C664.177,1611.377,662.576,1613.085,665.074,1614.68Z" transform="translate(-654.983 -1609.992)" fill="#f9b835"/>
        <path id="Tracé_195" data-name="Tracé 195" d="M699.507,1635.658a30.1,30.1,0,0,1-12.185-.141l-22.352-5.506s3.716-3.376,8.457-2.208,7.115,3.183,13.211,4.685a14.447,14.447,0,0,0,9.565-1.218C698.892,1632.568,699.973,1633.787,699.507,1635.658Z" transform="translate(-658.504 -1617.854)" fill="#f9b835"/>
        <g id="Groupe_97" data-name="Groupe 97" transform="translate(4.447 15.506)">
          <path id="Tracé_196" data-name="Tracé 196" d="M662.85,1639.371l-.335,1.348-1.355-.334.335-1.348a.7.7,0,0,1,1.355.334Z" transform="translate(-661.16 -1638.509)" fill="#fff"/>
          <path id="Tracé_197" data-name="Tracé 197" d="M673.077,1641.89l-.335,1.348-1.355-.333.335-1.348a.7.7,0,0,1,1.355.333Z" transform="translate(-665.968 -1639.694)" fill="#fff"/>
          <path id="Tracé_198" data-name="Tracé 198" d="M683.3,1644.41l-.335,1.348-1.355-.334.335-1.348a.7.7,0,0,1,1.355.334Z" transform="translate(-670.777 -1640.879)" fill="#fff"/>
          <path id="Tracé_199" data-name="Tracé 199" d="M693.532,1646.929l-.335,1.348-1.354-.334.335-1.348a.7.7,0,0,1,1.354.334Z" transform="translate(-675.586 -1642.063)" fill="#fff"/>
          <path id="Tracé_200" data-name="Tracé 200" d="M703.759,1649.448l-.335,1.348-1.355-.333.335-1.348a.7.7,0,0,1,1.355.333Z" transform="translate(-680.394 -1643.248)" fill="#fff"/>
          <path id="Tracé_201" data-name="Tracé 201" d="M714.25,1650.7l-.343,1.378c-.492-.016-.962-.044-1.407-.08a.71.71,0,0,1,.019-.12l.377-1.512a.7.7,0,0,1,1.354.334Z" transform="translate(-685.299 -1643.834)" fill="#fff"/>
        </g>
        <path id="Tracé_202" data-name="Tracé 202" d="M702.29,1620.647c-1.827.847-4.282.824-7.137-.974a41.222,41.222,0,0,1-5.838-5.041,2.768,2.768,0,0,1-.148-3.765l1.392-1.624s5.93,9.014,11.73,11.4Z" transform="translate(-669.567 -1609.243)" fill="#f9b835"/>
        <path id="Tracé_203" data-name="Tracé 203" d="M692.916,1622.23a.693.693,0,0,1-.336-1.153l3.883-4.05a.7.7,0,0,1,.987-.024.692.692,0,0,1,.024.981h0l-3.884,4.05a.7.7,0,0,1-.673.195Z" transform="translate(-671.394 -1612.801)" fill="#fff"/>
        <path id="Tracé_204" data-name="Tracé 204" d="M697.4,1626.033a.693.693,0,0,1-.336-1.153l3.883-4.05a.7.7,0,0,1,.987-.025.692.692,0,0,1,.025.982h0l-3.883,4.05A.7.7,0,0,1,697.4,1626.033Z" transform="translate(-673.501 -1614.59)" fill="#fff"/>
      </g>
      <g id="Groupe_104" data-name="Groupe 104" transform="translate(43.524 22.173)">
        <ellipse id="Ellipse_59" data-name="Ellipse 59" cx="4.37" cy="4.349" rx="4.37" ry="4.349" fill="#232f3e"/>
        <g id="Groupe_103" data-name="Groupe 103" transform="translate(0.498 0.298)">
          <g id="Groupe_99" data-name="Groupe 99" transform="translate(4.42 1.074)">
            <path id="Tracé_205" data-name="Tracé 205" d="M686.095,1555.972a.522.522,0,0,1-.184-.048.27.27,0,0,1-.159-.16.33.33,0,0,1,.031-.238l.608-1.316.254.116-.6,1.3a.129.129,0,0,0-.015.086.093.093,0,0,0,.057.055.736.736,0,0,0,.089.033Z" transform="translate(-685.741 -1554.21)" fill="#fff"/>
          </g>
          <g id="Groupe_100" data-name="Groupe 100" transform="translate(5.505 4.422)">
            <path id="Tracé_206" data-name="Tracé 206" d="M688.132,1561.747a.547.547,0,0,1-.318-.331.787.787,0,0,1,.393-.848.632.632,0,0,1,.778.357.663.663,0,0,1-.056.487.672.672,0,0,1-.337.361A.552.552,0,0,1,688.132,1561.747Zm.092-.2q.271.124.446-.255t-.1-.5q-.271-.124-.445.253T688.224,1561.548Z" transform="translate(-687.789 -1560.529)" fill="#fff"/>
          </g>
          <g id="Groupe_101" data-name="Groupe 101" transform="translate(1.081 2.397)">
            <path id="Tracé_207" data-name="Tracé 207" d="M679.783,1557.925a.547.547,0,0,1-.318-.331.788.788,0,0,1,.392-.848.556.556,0,0,1,.46.026.55.55,0,0,1,.318.33.66.66,0,0,1-.056.487.673.673,0,0,1-.336.361A.552.552,0,0,1,679.783,1557.925Zm.092-.2q.271.124.446-.255t-.1-.5q-.271-.124-.445.253T679.875,1557.726Z" transform="translate(-679.44 -1556.707)" fill="#fff"/>
          </g>
          <g id="Groupe_102" data-name="Groupe 102" transform="translate(2.101 5.278)">
            <path id="Tracé_208" data-name="Tracé 208" d="M682.272,1563.31a.522.522,0,0,1-.371-.025.425.425,0,0,1-.251-.3.68.68,0,0,1,.064-.451.8.8,0,0,1,.187-.263.5.5,0,0,1,.245-.125.446.446,0,0,1,.271.039.5.5,0,0,1,.264.279l.067-.089.215.1-.469,1.014a.544.544,0,0,1-.795.292.91.91,0,0,1-.335-.26l.083-.18a1.256,1.256,0,0,0,.329.23.353.353,0,0,0,.269.034.37.37,0,0,0,.184-.207Zm-.206-.185a.443.443,0,0,0,.279.026l.253-.548a.45.45,0,0,0-.2-.186.249.249,0,0,0-.234,0,.487.487,0,0,0-.185.234Q681.81,1563.008,682.066,1563.125Z" transform="translate(-681.365 -1562.144)" fill="#fff"/>
          </g>
          <path id="Tracé_209" data-name="Tracé 209" d="M684.749,1559.891a.1.1,0,0,1-.051-.055l-2.838-7.52a.1.1,0,0,1,.185-.069l2.838,7.52a.1.1,0,0,1-.058.127A.1.1,0,0,1,684.749,1559.891Z" transform="translate(-679.493 -1552.183)" fill="#fff"/>
          <path id="Tracé_210" data-name="Tracé 210" d="M677.457,1559.627a.1.1,0,0,1,.006-.181l7.558-2.824a.1.1,0,1,1,.069.184l-7.558,2.824A.1.1,0,0,1,677.457,1559.627Z" transform="translate(-677.399 -1554.267)" fill="#fff"/>
        </g>
      </g>
      <ellipse id="Ellipse_60" data-name="Ellipse 60" cx="2.668" cy="2.654" rx="2.668" ry="2.654" transform="translate(48.363 63.383)" fill="#fff"/>
      <g id="Groupe_105" data-name="Groupe 105" transform="translate(38.001 70.325)">
        <path id="Tracé_211" data-name="Tracé 211" d="M682.734,1648.622l-1.866-5.02-5.046,1.857a.482.482,0,1,1-.335-.9l5.5-2.023a.484.484,0,0,1,.622.284l2.034,5.471a.484.484,0,0,1-.908.334Z" transform="translate(-670.331 -1642.502)" fill="#fff"/>
        <path id="Tracé_212" data-name="Tracé 212" d="M680.374,1653.749a.483.483,0,0,0-.262-.3l-11.3-5.172a.485.485,0,0,0-.666.3l-2.091,6.989a.481.481,0,0,0,.261.575l9.416,4.31a.485.485,0,0,0,.609-.176l3.974-6.127A.478.478,0,0,0,680.374,1653.749Zm-10.665,1.141a.483.483,0,0,1-.879-.4l1.3-2.81a.483.483,0,0,1,.879.4Zm1.883.862a.483.483,0,0,1-.879-.4l1.3-2.81a.483.483,0,0,1,.879.4Zm1.883.862a.483.483,0,0,1-.879-.4l1.3-2.81a.483.483,0,0,1,.879.4Zm1.883.862a.483.483,0,0,1-.879-.4l1.3-2.81a.483.483,0,0,1,.879.4Z" transform="translate(-666.036 -1645.195)" fill="#fff"/>
        <path id="Tracé_213" data-name="Tracé 213" d="M681.721,1652.731l-14.123-6.465a.48.48,0,0,1-.237-.639l.866-1.874a.485.485,0,0,1,.642-.236l14.123,6.465a.481.481,0,0,1,.237.639l-.867,1.874A.484.484,0,0,1,681.721,1652.731Z" transform="translate(-666.638 -1642.959)" fill="#fff"/>
      </g>
      <path id="Tracé_214" data-name="Tracé 214" d="M720.209,1694.064a6.7,6.7,0,0,0,9.445-6.91l-2.289-17.782a6.652,6.652,0,0,0-.744-2.31l-7.533-13.947a6.682,6.682,0,0,0-2.455-2.561l-9.531-5.692a6.72,6.72,0,0,0-9.2,2.287,6.651,6.651,0,0,0,2.3,9.151l7.949,4.747,6.073,11.243,2.131,16.559A6.667,6.667,0,0,0,720.209,1694.064Z" transform="translate(-642.569 -1572.839)" fill="#f8bd83"/>
    </g>
    <path id="Tracé_215" data-name="Tracé 215" d="M858.123,1576.636c-17.658,0-31.973,14.73-31.973,32.9s14.315,32.9,31.973,32.9,31.973-14.73,31.973-32.9S875.781,1576.636,858.123,1576.636Zm0,51.546c-9.993,0-18.123-8.365-18.123-18.647s8.13-18.647,18.123-18.647,18.123,8.365,18.123,18.647S868.116,1628.182,858.123,1628.182Z" transform="translate(-844.256 2059.465)" fill="#f90"/>
    <g id="Groupe_89" data-name="Groupe 89" transform="translate(-67.615 3754.65) rotate(-13)">
      <path id="Tracé_155" data-name="Tracé 155" d="M91.523,49.211,46.149,12.583,9.337,57.729a5.274,5.274,0,0,1-7.393.767,5.211,5.211,0,0,1-.77-7.355L41.3,1.934a5.274,5.274,0,0,1,7.392-.766L98.145,41.089a5.21,5.21,0,0,1,.77,7.355A5.272,5.272,0,0,1,91.523,49.211Z" transform="translate(39.191)" fill="#232f3e"/>
      <path id="Tracé_156" data-name="Tracé 156" d="M143.214,1.412A5.27,5.27,0,0,0,139.078.028L4.711,13.956a5.263,5.263,0,0,0-3.761,2.2,5.208,5.208,0,0,0-.792,4.27L19.52,97.255a5.253,5.253,0,0,0,5.642,3.929L137.135,89.577a5.239,5.239,0,0,0,4.706-5l3.032-79.148A5.212,5.212,0,0,0,143.214,1.412ZM49.907,70.838a5.255,5.255,0,0,1-10.454,1.084L35.953,38.5a5.255,5.255,0,0,1,10.454-1.084ZM72.3,68.517A5.255,5.255,0,0,1,61.847,69.6l-3.5-33.423A5.255,5.255,0,0,1,68.8,35.094ZM94.7,66.2a5.255,5.255,0,0,1-10.454,1.084l-3.5-33.423A5.255,5.255,0,0,1,91.2,32.772Zm22.395-2.321a5.255,5.255,0,0,1-10.454,1.084l-3.5-33.424a5.255,5.255,0,0,1,10.454-1.083Z" transform="translate(19.129 59.882)" fill="#f9b835"/>
      <path id="Tracé_157" data-name="Tracé 157" d="M176.093,32.712,8.134,50.122a5.25,5.25,0,0,1-5.772-4.659L.029,23.181a5.236,5.236,0,0,1,4.683-5.743L172.671.029a5.249,5.249,0,0,1,5.771,4.658l2.333,22.283A5.236,5.236,0,0,1,176.093,32.712Z" transform="translate(0 35.858)" fill="#f90"/>
    </g>
    <g id="Groupe_88" data-name="Groupe 88" transform="translate(40.685 3701.999)">
      <path id="Tracé_151" data-name="Tracé 151" d="M124.582,1550.616l-3.859,19.2,61.743-39.164Z" transform="translate(-103.744 -1530.651)" fill="#a0351c"/>
      <path id="Tracé_152" data-name="Tracé 152" d="M142.754,1555.224l14.664,18.43,39.361-43Z" transform="translate(-118.057 -1530.651)" fill="#cc4d2f"/>
      <path id="Tracé_153" data-name="Tracé 153" d="M93.094,1550.616,72.256,1541.4l78.723-10.751Z" transform="translate(-72.256 -1530.651)" fill="#cc4d2f"/>
      <path id="Tracé_154" data-name="Tracé 154" d="M128.441,1600.795l-7.718,14.59,12.844-8.147Z" transform="translate(-103.744 -1576.221)" fill="#f06d50"/>
    </g>
    <g id="Groupe_109" data-name="Groupe 109" transform="translate(143.27 3685.461)">
      <ellipse id="Ellipse_61" data-name="Ellipse 61" cx="19.115" cy="19.019" rx="19.115" ry="19.019" fill="#f9b835"/>
      <ellipse id="Ellipse_62" data-name="Ellipse 62" cx="15.227" cy="15.15" rx="15.227" ry="15.15" transform="translate(3.888 3.869)" fill="#f90"/>
      <g id="Groupe_108" data-name="Groupe 108" transform="translate(9.278 11.404)">
        <path id="Tracé_216" data-name="Tracé 216" d="M463.466,1455.565a7.615,7.615,0,1,1,4.483-13.788.94.94,0,0,1,.212,1.318.952.952,0,0,1-1.325.212,5.728,5.728,0,1,0,.088,9.222.952.952,0,0,1,1.328.187.941.941,0,0,1-.187,1.322A7.615,7.615,0,0,1,463.466,1455.565Z" transform="translate(-453.186 -1440.334)" fill="#f9b835"/>
        <g id="Groupe_107" data-name="Groupe 107" transform="translate(0 4.994)">
          <path id="Tracé_217" data-name="Tracé 217" d="M461.4,1451.8h-9.674a.944.944,0,1,1,0-1.888H461.4a.944.944,0,1,1,0,1.888Z" transform="translate(-450.776 -1449.91)" fill="#f9b835"/>
          <path id="Tracé_218" data-name="Tracé 218" d="M461.4,1458.229h-9.674a.944.944,0,1,1,0-1.888H461.4a.944.944,0,1,1,0,1.888Z" transform="translate(-450.776 -1452.987)" fill="#f9b835"/>
        </g>
      </g>
    </g>
    <g id="Groupe_127" data-name="Groupe 127" transform="translate(1761.718 3829.766)">
      <ellipse id="Ellipse_61-2" data-name="Ellipse 61" cx="22.336" cy="22.224" rx="22.336" ry="22.224" transform="translate(0 0)" fill="#f9b835"/>
      <ellipse id="Ellipse_62-2" data-name="Ellipse 62" cx="17.792" cy="17.703" rx="17.792" ry="17.703" transform="translate(4.543 4.521)" fill="#f90"/>
      <g id="Groupe_108-2" data-name="Groupe 108" transform="translate(10.842 13.325)">
        <path id="Tracé_216-2" data-name="Tracé 216" d="M464.756,1458.131a8.9,8.9,0,1,1,5.238-16.112,1.1,1.1,0,0,1,.248,1.54,1.112,1.112,0,0,1-1.548.247,6.693,6.693,0,1,0,.1,10.776,1.112,1.112,0,0,1,1.552.218,1.1,1.1,0,0,1-.219,1.545A8.9,8.9,0,0,1,464.756,1458.131Z" transform="translate(-452.743 -1440.334)" fill="#f9b835"/>
        <g id="Groupe_107-2" data-name="Groupe 107" transform="translate(0 5.836)">
          <path id="Tracé_217-2" data-name="Tracé 217" d="M463.188,1452.116h-11.3a1.1,1.1,0,1,1,0-2.206h11.3a1.1,1.1,0,1,1,0,2.206Z" transform="translate(-450.776 -1449.91)" fill="#f9b835"/>
          <path id="Tracé_218-2" data-name="Tracé 218" d="M463.188,1458.547h-11.3a1.1,1.1,0,1,1,0-2.206h11.3a1.1,1.1,0,1,1,0,2.206Z" transform="translate(-450.776 -1452.422)" fill="#f9b835"/>
        </g>
      </g>
    </g>
    <g id="Groupe_110" data-name="Groupe 110" transform="translate(106 3655.66)">
      <ellipse id="Ellipse_61-3" data-name="Ellipse 61" cx="13.408" cy="13.34" rx="13.408" ry="13.34" fill="#f9b835"/>
      <ellipse id="Ellipse_62-3" data-name="Ellipse 62" cx="10.68" cy="10.627" rx="10.68" ry="10.627" transform="translate(2.727 2.714)" fill="#f90"/>
      <g id="Groupe_108-3" data-name="Groupe 108" transform="translate(6.508 7.999)">
        <path id="Tracé_216-3" data-name="Tracé 216" d="M461.181,1451.017a5.341,5.341,0,1,1,3.144-9.671.66.66,0,0,1,.149.925.668.668,0,0,1-.929.148,4.017,4.017,0,1,0,.061,6.469.668.668,0,0,1,.932.131.66.66,0,0,1-.131.927A5.341,5.341,0,0,1,461.181,1451.017Z" transform="translate(-453.97 -1440.334)" fill="#f9b835"/>
        <g id="Groupe_107-3" data-name="Groupe 107" transform="translate(0 3.503)">
          <path id="Tracé_217-3" data-name="Tracé 217" d="M458.227,1451.234h-6.785a.662.662,0,1,1,0-1.324h6.785a.662.662,0,1,1,0,1.324Z" transform="translate(-450.776 -1449.91)" fill="#f9b835"/>
          <path id="Tracé_218-3" data-name="Tracé 218" d="M458.227,1457.665h-6.785a.662.662,0,1,1,0-1.324h6.785a.662.662,0,1,1,0,1.324Z" transform="translate(-450.776 -1453.989)" fill="#f9b835"/>
        </g>
      </g>
    </g>
    <g id="Groupe_128" data-name="Groupe 128" transform="translate(1714.337 3803.863)">
      <ellipse id="Ellipse_61-4" data-name="Ellipse 61" cx="15.667" cy="15.588" rx="15.667" ry="15.588" transform="translate(0 0)" fill="#f9b835"/>
      <ellipse id="Ellipse_62-4" data-name="Ellipse 62" cx="12.48" cy="12.417" rx="12.48" ry="12.417" transform="translate(3.187 3.171)" fill="#f90"/>
      <g id="Groupe_108-4" data-name="Groupe 108" transform="translate(7.604 9.347)">
        <path id="Tracé_216-4" data-name="Tracé 216" d="M462.085,1452.817a6.241,6.241,0,1,1,3.674-11.3.771.771,0,0,1,.174,1.08.78.78,0,0,1-1.086.173,4.694,4.694,0,1,0,.072,7.559.78.78,0,0,1,1.089.153.772.772,0,0,1-.153,1.084A6.241,6.241,0,0,1,462.085,1452.817Z" transform="translate(-453.659 -1440.334)" fill="#f9b835"/>
        <g id="Groupe_107-4" data-name="Groupe 107" transform="translate(0 4.093)">
          <path id="Tracé_217-4" data-name="Tracé 217" d="M459.482,1451.457h-7.928a.774.774,0,1,1,0-1.547h7.928a.774.774,0,1,1,0,1.547Z" transform="translate(-450.776 -1449.91)" fill="#f9b835"/>
          <path id="Tracé_218-4" data-name="Tracé 218" d="M459.482,1457.888h-7.928a.774.774,0,1,1,0-1.547h7.928a.774.774,0,1,1,0,1.547Z" transform="translate(-450.776 -1453.592)" fill="#f9b835"/>
        </g>
      </g>
    </g>
    <g id="Groupe_111" data-name="Groupe 111" transform="matrix(0.951, -0.309, 0.309, 0.951, 242.412, 3812.753)">
      <rect id="Rectangle_56" data-name="Rectangle 56" width="33.467" height="33.467" transform="translate(25.958 27.607) rotate(-55.579)" fill="#cc4d2f"/>
      <path id="Ligne_37" data-name="Ligne 37" d="M.2,5.46,0,4.365,23.371,0l.2,1.1Z" transform="translate(0 30.272)" fill="#a0351c"/>
      <path id="Ligne_38" data-name="Ligne 38" d="M.2,3.9,0,2.8,15,0l.2,1.1Z" transform="translate(5.161 25.374)" fill="#a0351c"/>
    </g>
    <g id="Tracé_219" data-name="Tracé 219" transform="translate(98.567 1995.041)" fill="none">
      <path d="M180.731,1766.459l36.77,21.122-21.229,36.585-36.77-21.122Z" stroke="none"/>
      <path d="M 182.1360778808594 1771.70458984375 L 164.7699127197266 1801.632690429688 L 194.8657836914062 1818.921264648438 L 212.2319183349609 1788.9931640625 L 182.1360778808594 1771.70458984375 M 180.7305603027344 1766.459106445312 L 217.5003356933594 1787.58154296875 L 196.2713012695312 1824.166748046875 L 159.5015106201172 1803.044311523438 L 180.7305603027344 1766.459106445312 Z" stroke="none" fill="#f9b835"/>
    </g>
    <g id="Tracé_251" data-name="Tracé 251" transform="translate(1706.353 1829.282)" fill="none">
      <path d="M184.307,1766.459l42.965,24.681-24.806,42.749L159.5,1809.208Z" stroke="none"/>
      <path d="M 185.7127532958984 1771.704467773438 L 164.7699279785156 1807.796630859375 L 201.0607757568359 1828.643920898438 L 222.0036010742188 1792.552001953125 L 185.7127532958984 1771.704467773438 M 184.3072357177734 1766.458984375 L 227.2720031738281 1791.140380859375 L 202.4662933349609 1833.889404296875 L 159.5015106201172 1809.208251953125 L 184.3072357177734 1766.458984375 Z" stroke="none" fill="#f9b835"/>
    </g>
    <g id="Groupe_126" data-name="Groupe 126" transform="matrix(-0.087, -0.996, 0.996, -0.087, 1697.893, 3831.677)">
      <g id="Groupe_125" data-name="Groupe 125" transform="translate(0 31.419)">
        <path id="Tracé_229" data-name="Tracé 229" d="M91.991,88.489a52.7,52.7,0,0,1-39.158,17.28c-.492-.031-.983-.027-1.473-.021A52.911,52.911,0,0,1,.524,60.428c0-.109-.027-.2-.033-.307C.43,59.2.314,58.293.2,57.39a52.882,52.882,0,1,1,91.792,31.1Z" transform="translate(24.847 0)" fill="#f9b835"/>
        <path id="Tracé_230" data-name="Tracé 230" d="M23.621,0S20.7,44.959,10.352,56.335L0,67.712,27.064,92.339,37.417,80.962C48.065,69.26,92.25,62.447,92.25,62.447Z" transform="translate(2.71 40.439)" fill="#f9b835"/>
        <path id="Tracé_231" data-name="Tracé 231" d="M40.127,24.627,29.774,36a10.438,10.438,0,0,1-14.746.676L3.424,26.121A10.437,10.437,0,0,1,2.71,11.377L13.061,0Z" transform="translate(0 96.774)" fill="#ef8b06"/>
        <path id="Tracé_232" data-name="Tracé 232" d="M0,56.433S18.332,14.4,28.263,3.863s22.22,3.126,18.069,9.575c-5.152,8-10.967-.022-3.448-4.512s18.344,7.764,10.481,16.4S7.89,63.612,7.89,63.612" transform="translate(19.376 52.85)" fill="none" stroke="#ef8b06" stroke-width="2.198"/>
        <path id="Tracé_233" data-name="Tracé 233" d="M3.376,0S10.65,15.031,30.1,25l-2.436,2.677S8.531,21.516,0,3.71Z" transform="translate(8.199 98.408)" fill="#f9b835"/>
        <path id="Tracé_234" data-name="Tracé 234" d="M3.376,0S10.65,15.031,30.1,25L27.663,27.68S8.532,21.516,0,3.71Z" transform="translate(3.328 103.761)" fill="#f9b835"/>
      </g>
      <line id="Ligne_29" data-name="Ligne 29" x1="17.045" y2="16.156" transform="translate(131.477 22.264)" fill="none" stroke="#fff" stroke-width="2.198"/>
      <line id="Ligne_30" data-name="Ligne 30" x1="23.405" y2="1.938" transform="translate(144.867 68.545)" fill="none" stroke="#fff" stroke-width="2.198"/>
      <line id="Ligne_31" data-name="Ligne 31" x1="22.42" y1="6.992" transform="translate(143.692 101.685)" fill="none" stroke="#fff" stroke-width="2.198"/>
      <line id="Ligne_32" data-name="Ligne 32" x2="0.285" y2="21.889" transform="translate(104.973)" fill="none" stroke="#fff" stroke-width="2.198"/>
    </g>
    <g id="Groupe_123" data-name="Groupe 123" transform="matrix(0.883, -0.469, 0.469, 0.883, 1854.686, 3831.53)">
      <path id="Tracé_222" data-name="Tracé 222" d="M8.151,39.672,0,16.524,36.965,1.69A23.489,23.489,0,0,1,53.5,1.329l8.953,4.246a2.61,2.61,0,0,1,1.231,3.5l-4.317,8.92A23.491,23.491,0,0,1,46.255,28.072Z" transform="translate(8.615 0)" fill="#cc4d2f"/>
      <ellipse id="Ellipse_63" data-name="Ellipse 63" cx="7.873" cy="7.873" rx="7.873" ry="7.873" transform="translate(43.61 6.564)" fill="#a0351c"/>
      <rect id="Rectangle_60" data-name="Rectangle 60" width="2.763" height="19.891" transform="translate(25.781 22.024) rotate(70.601)" fill="#a0351c"/>
      <path id="Tracé_223" data-name="Tracé 223" d="M21.959,3.525S16.675-2.33,0,1.052L8.614,8.88Z" transform="translate(0 7.644)" fill="#a0351c"/>
      <path id="Tracé_224" data-name="Tracé 224" d="M15.565,0S15.115,7.874,0,15.686l1.809-11.5Z" transform="translate(14.968 35.517)" fill="#a0351c"/>
    </g>
    <path id="Tracé_221" data-name="Tracé 221" d="M1120.928,2421.685c-10.237,0-18.536,8.582-18.536,19.169s8.3,19.168,18.536,19.168,18.534-8.583,18.534-19.168S1131.163,2421.685,1120.928,2421.685Zm0,30.032a10.87,10.87,0,1,1,10.506-10.864A10.7,10.7,0,0,1,1120.928,2451.717Z" transform="translate(725.392 1234.61)" fill="#ef8b06"/>
    <path id="Tracé_235" data-name="Tracé 235" d="M1145.033,2421.685c-23.55,0-42.641,19.744-42.641,44.1s19.091,44.095,42.641,44.095,42.638-19.744,42.638-44.095S1168.581,2421.685,1145.033,2421.685Zm0,69.089c-13.327,0-24.168-11.212-24.168-24.99s10.841-24.994,24.168-24.994S1169.2,2452,1169.2,2465.783,1158.358,2490.774,1145.033,2490.774Z" transform="translate(770.739 1253.779)" fill="#cc4d2f"/>
    <g id="Groupe_130" data-name="Groupe 130" transform="translate(1605.964 3797.464)">
      <path id="Tracé_237" data-name="Tracé 237" d="M486.089,1898.044s7.083-10.458,12.453-4.4c3.567,4.024-3.567,8.088-6.24,3.773-2.285-3.689,1.995-6.437,5.659-8.071,4.769-2.128,6.006,1.048,2.934,2.361s-3.428-3.34-.909-5.914" transform="translate(-404.177 -1885.793)" fill="none" stroke="#bb4926" stroke-width="2.184"/>
      <path id="Tracé_238" data-name="Tracé 238" d="M438.107,2052.066l-3.787,16.992-5.609,1.142.247-11.485Z" transform="translate(-362.389 -2006.888)" fill="#bf4528"/>
      <path id="Tracé_239" data-name="Tracé 239" d="M432.072,2114.77l-.846-4.157-5.632,2.226-1.163,3.409Z" transform="translate(-359.271 -2049.527)" fill="#bb4926"/>
      <path id="Tracé_240" data-name="Tracé 240" d="M278.6,2075.711l1.049,14.313,6.054-.153,3.916-11.617Z" transform="translate(-253.064 -2024.108)" fill="#bf4528"/>
      <path id="Tracé_241" data-name="Tracé 241" d="M220.4,1916.913s.043-17.872,19.339-23.371,37.1-7.847,45.44-5.323c9.855,2.982,27.844,22.992,11.307,41.081-11.77,12.875-35.683,14.969-49.665,16.391C227.54,1947.653,221.779,1935.023,220.4,1916.913Z" transform="translate(-210.677 -1886.823)" fill="#d64b34"/>
      <g id="Groupe_129" data-name="Groupe 129" transform="translate(0 26.065)">
        <ellipse id="Ellipse_64" data-name="Ellipse 64" cx="6.636" cy="9.618" rx="6.636" ry="9.618" transform="translate(6.35 2.647) rotate(-11.506)" fill="#bb4926"/>
        <path id="Tracé_242" data-name="Tracé 242" d="M217.268,1986.242l-6.114,2.03,4.2,17.962,6.69-1.334Z" transform="translate(-203.944 -1985.014)" fill="#bb4926"/>
        <ellipse id="Ellipse_65" data-name="Ellipse 65" cx="7.358" cy="9.233" rx="7.358" ry="9.233" transform="translate(0 4.725) rotate(-11.506)" fill="#d64b34"/>
        <ellipse id="Ellipse_66" data-name="Ellipse 66" cx="1.058" cy="1.683" rx="1.058" ry="1.683" transform="translate(4.495 11.859) rotate(-11.506)" fill="#783728"/>
        <ellipse id="Ellipse_67" data-name="Ellipse 67" cx="1.058" cy="1.683" rx="1.058" ry="1.683" transform="translate(9.631 10.813) rotate(-11.506)" fill="#783728"/>
      </g>
      <path id="Tracé_243" data-name="Tracé 243" d="M307.584,1905.576l6.84-5.63.244,9.868Z" transform="translate(-274.173 -1896.101)" fill="#bb4926"/>
      <path id="Tracé_244" data-name="Tracé 244" d="M254.373,1901.734l-7.628-5.576,1.1,9.8Z" transform="translate(-229.865 -1893.342)" fill="#bb4926"/>
      <ellipse id="Ellipse_68" data-name="Ellipse 68" cx="2.109" cy="2.789" rx="2.109" ry="2.789" transform="translate(27.297 22.093) rotate(-11.506)" fill="#232f3e"/>
      <path id="Tracé_245" data-name="Tracé 245" d="M346.735,1900.869a86.893,86.893,0,0,1,12.6-2.566" transform="translate(-302.686 -1894.905)" fill="none" stroke="#fff" stroke-width="4.631"/>
      <path id="Tracé_246" data-name="Tracé 246" d="M318.188,2077.168l-.435,17.237,6.054.652,6.08-12.786Z" transform="translate(-281.579 -2025.169)" fill="#d64b34"/>
      <path id="Tracé_247" data-name="Tracé 247" d="M309.888,2134.022l2.231-7.121,6.927,2.343.178,3.87Z" transform="translate(-275.851 -2061.389)" fill="#bb4926"/>
      <path id="Tracé_248" data-name="Tracé 248" d="M275.638,2133.46l1.853-5.481,6.054-.153-.25,4.075Z" transform="translate(-250.907 -2062.063)" fill="#bb4926"/>
      <path id="Tracé_249" data-name="Tracé 249" d="M472.5,2031.454l.2,19.1-5.318,2.966-3.658-12.795Z" transform="translate(-387.89 -1991.876)" fill="#d64b34"/>
      <path id="Tracé_250" data-name="Tracé 250" d="M474.874,2102.269l.273-4.618-5.873,2.128-2.249,6.016Z" transform="translate(-390.292 -2040.087)" fill="#bb4926"/>
      <text id="_" data-name="€" transform="translate(47.849 41.987) rotate(-8.913)" fill="#002d3f" font-size="26" font-family="AmazonEmber-Bold, Amazon Ember" font-weight="700"><tspan x="0" y="0">€</tspan></text>
    </g>
    <g id="Groupe_124" data-name="Groupe 124" transform="translate(1594.756 3728.275)">
      <path id="Tracé_225" data-name="Tracé 225" d="M1335.239,2581.9l40.067-3.049h0a3.2,3.2,0,0,0-3.437-2.951L1335,2578.71Z" transform="translate(-1271.843 -2538.231)" fill="#f6ab26"/>
      <path id="Tracé_226" data-name="Tracé 226" d="M1171.817,2484.91l14.954,38.162a2.839,2.839,0,0,0,2.826,1.715l60.322-4.59-16.846-41.632a1.454,1.454,0,0,0-1.442-.867l-58.122,4.422A2.007,2.007,0,0,0,1171.817,2484.91Z" transform="translate(-1171.148 -2477.693)" fill="#f9b835"/>
      <path id="Tracé_227" data-name="Tracé 227" d="M1172.064,2482.367a1.868,1.868,0,0,0-1.576,2.6l15.246,38.844a2.074,2.074,0,0,0,2.064,1.252l59.958-4.562-16.728-41.363a1.868,1.868,0,0,0-1.853-1.114Z" transform="translate(-1170.336 -2477.892)" fill="#f9b835"/>
      <path id="Tracé_228" data-name="Tracé 228" d="M1256.779,2534.119a4.039,4.039,0,0,0,3.946,2.736,2.331,2.331,0,0,0,2.092-3.2,4.04,4.04,0,0,0-3.946-2.736A2.332,2.332,0,0,0,1256.779,2534.119Z" transform="translate(-1223.539 -2510.502)" fill="#2e3946"/>
    </g>
  </g>
</svg>
