<svg xmlns="http://www.w3.org/2000/svg" width="2000.745" height="667.688" viewBox="0 0 2000.745 667.688">
  <g id="Groupe_152" data-name="Groupe 152" transform="translate(80.745 -429.264)">
    <g id="Rectangle_95" data-name="Rectangle 95" transform="translate(0 561)" fill="#fff" stroke="#707070" stroke-width="1">
      <rect width="1920" height="517" stroke="none"/>
      <rect x="0.5" y="0.5" width="1919" height="516" fill="none"/>
    </g>
    <path id="Tracé_132" data-name="Tracé 132" d="M243.72,101.495S167.06,143.137,118.793,68.37C60.265-22.291-31.687,93.924,10.9,96.763c10.214.681,57.732-32.178,26.638-63.248C23.465,19.452,2.786,0,2.786,0" transform="matrix(0.616, -0.788, 0.788, 0.616, 1312.997, 622.224)" fill="none" stroke="#cc4d2f" stroke-width="2.198" stroke-dasharray="10.988"/>
    <g id="Groupe_66" data-name="Groupe 66" transform="translate(1318.555 617.072) rotate(142)">
      <path id="Tracé_128" data-name="Tracé 128" d="M3.65,18.161,0,0,58.408,37.048Z" transform="translate(16.062 3.632)" fill="#a0351c"/>
      <path id="Tracé_129" data-name="Tracé 129" d="M0,17.435,13.872,0,51.107,40.68Z" transform="translate(23.363 0)" fill="#cc4d2f"/>
      <path id="Tracé_130" data-name="Tracé 130" d="M19.713,0,0,8.717l74.47,10.17Z" transform="translate(0 21.793)" fill="#cc4d2f"/>
      <path id="Tracé_131" data-name="Tracé 131" d="M7.3,13.8,0,0,12.151,7.707Z" transform="translate(16.062 3.632)" fill="#f06d50"/>
    </g>
    <g id="Groupe_61" data-name="Groupe 61" transform="translate(901.814 -294.631)">
      <g id="Groupe_45" data-name="Groupe 45" transform="translate(609.277 1324.89)">
        <path id="Tracé_70" data-name="Tracé 70" d="M679.9,1404.029l-27.439-26.221L631.1,1405.463l37.269,27.62Z" transform="translate(-625.677 -1372.383)" fill="#f7ac6f"/>
        <path id="Tracé_71" data-name="Tracé 71" d="M662.421,1434.721l-37.269-27.62a5.425,5.425,0,0,1-1.063-7.674l21.359-27.655a5.426,5.426,0,0,1,8.042-.606l27.439,26.221a5.425,5.425,0,0,1,1.294,5.923l-11.53,29.054a5.425,5.425,0,0,1-8.272,2.358Zm-12.07-51.548-14.293,18.506,27.154,20.123,7.579-19.1Z" transform="translate(-622.957 -1369.663)" fill="#f7ac6f"/>
      </g>
      <path id="Tracé_72" data-name="Tracé 72" d="M693.788,1401.511s7.916,37.081-8.11,42.386c-9.754,3.23-11.2-.01-23.873-8.412-9.638-7.007-2.31-20.539,7.969-23.71-1.414-2.352,2.491-6.667,7.295-12.261C682.609,1393.061,687.335,1396.294,693.788,1401.511Z" transform="translate(-25.151 -53.545)" fill="#f8bd83"/>
      <path id="Tracé_73" data-name="Tracé 73" d="M630.874,1373.147a5.425,5.425,0,0,0,5.884-.885l9.176-8.2a5.425,5.425,0,0,0,.448-7.639l-26.593-30.057a5.425,5.425,0,1,0-8.125,7.189l23.017,26.015-1.324,1.184L610,1337.34a5.425,5.425,0,0,0-7.68,7.663L629.3,1372.05A5.4,5.4,0,0,0,630.874,1373.147Z" transform="translate(-6.257 -29.7)" fill="#f7ac6f"/>
      <path id="Tracé_74" data-name="Tracé 74" d="M612.674,1405.065a5.425,5.425,0,0,0,6.755-1.881l5.859-8.631a5.425,5.425,0,0,0-.862-7.081l-26.94-24.219a5.425,5.425,0,1,0-7.254,8.068l23.135,20.8-21.942-16.713a5.425,5.425,0,0,0-6.574,8.631l26.8,20.416A5.438,5.438,0,0,0,612.674,1405.065Z" transform="translate(-0.24 -42.168)" fill="#f7ac6f"/>
      <g id="Groupe_46" data-name="Groupe 46" transform="translate(581.996 1235.604)">
        <rect id="Rectangle_41" data-name="Rectangle 41" width="62.601" height="119.253" rx="8.414" transform="matrix(-0.908, -0.418, 0.418, -0.908, 56.87, 134.502)" fill="#fff"/>
        <rect id="Rectangle_42" data-name="Rectangle 42" width="52.97" height="95.739" rx="5.768" transform="matrix(-0.908, -0.418, 0.418, -0.908, 59.281, 117.259)" fill="#cecece"/>
        <rect id="Rectangle_43" data-name="Rectangle 43" width="13.37" height="2.833" rx="1.416" transform="matrix(-0.908, -0.418, 0.418, -0.908, 82.128, 20.713)" fill="#f90"/>
        <circle id="Ellipse_27" data-name="Ellipse 27" cx="1.416" cy="1.416" r="1.416" transform="translate(55.544 6.159)" fill="#f90"/>
        <circle id="Ellipse_28" data-name="Ellipse 28" cx="4.249" cy="4.249" r="4.249" transform="translate(27.62 109.708)" fill="#f90"/>
        <circle id="Ellipse_29" data-name="Ellipse 29" cx="1.416" cy="1.416" r="1.416" transform="translate(66.367 11.138)" fill="#f90"/>
        <path id="Rectangle_44" data-name="Rectangle 44" d="M0,0H.67a.466.466,0,0,1,.466.466V7.893A1.136,1.136,0,0,1,0,9.029H0a0,0,0,0,1,0,0V0A0,0,0,0,1,0,0Z" transform="matrix(-0.908, -0.418, 0.418, -0.908, 41.537, 18.056)" fill="#f90"/>
        <path id="Rectangle_45" data-name="Rectangle 45" d="M0,0H0A1.136,1.136,0,0,1,1.136,1.136V8.563a.466.466,0,0,1-.466.466H0a0,0,0,0,1,0,0V0A0,0,0,0,1,0,0Z" transform="matrix(-0.908, -0.418, 0.418, -0.908, 37.297, 27.273)" fill="#f90"/>
        <path id="Rectangle_46" data-name="Rectangle 46" d="M0,0H0A1.136,1.136,0,0,1,1.136,1.136V7.893A1.136,1.136,0,0,1,0,9.029H0a0,0,0,0,1,0,0V0A0,0,0,0,1,0,0Z" transform="translate(30.493 42.059) rotate(-155.293)" fill="#f90"/>
      </g>
      <rect id="Rectangle_47" data-name="Rectangle 47" width="52.97" height="95.739" rx="5.004" transform="matrix(-0.908, -0.418, 0.418, -0.908, 641.277, 1352.863)" fill="#cecece"/>
      <g id="Groupe_48" data-name="Groupe 48" transform="translate(612.517 1289.375)">
        <path id="Tracé_75" data-name="Tracé 75" d="M663.435,1329.625c-6.278-2.779-10.762-10.429-10.762-10.429-3.215,5.232-9.605,3.213-9.605,3.213-7.811-2.468-3.849-5.12-6.689-6.018s-7.14,10.24-7.14,10.24l-1.346,4.26a1.489,1.489,0,0,0,.972,1.869l27.693,8.75a32.843,32.843,0,0,0,10.935,1.206,2.971,2.971,0,0,0,2.615-2.073l1.213-3.84C672.218,1333.961,669.6,1332.354,663.435,1329.625Z" transform="translate(-627.823 -1316.339)" fill="#f90"/>
        <path id="Tracé_76" data-name="Tracé 76" d="M672.03,1336.8a31.975,31.975,0,0,1-12.969-.974l-29.113-9.2s4.3-11.137,7.14-10.24-1.122,3.551,6.689,6.018c0,0,6.391,2.02,9.605-3.213,0,0,4.484,7.651,10.762,10.429C670.311,1332.354,672.927,1333.961,672.03,1336.8Z" transform="translate(-628.532 -1316.339)" fill="#f90"/>
        <path id="Tracé_77" data-name="Tracé 77" d="M640.9,1320.675c-2.339,2.973-6.281,2.386-8.237,1.855,1.508-3.073,3.668-6.666,5.329-6.141C640.174,1317.078,638.353,1318.8,640.9,1320.675Z" transform="translate(-629.44 -1316.339)" fill="#f9b835"/>
        <path id="Tracé_78" data-name="Tracé 78" d="M674.879,1341.754a31.974,31.974,0,0,1-12.969-.974l-23.432-7.4s4.186-3.363,9.156-1.792,7.362,3.888,13.753,5.907a15.355,15.355,0,0,0,10.271-.657C674.432,1338.405,675.5,1339.783,674.879,1341.754Z" transform="translate(-631.381 -1321.291)" fill="#f9b835"/>
        <g id="Groupe_47" data-name="Groupe 47" transform="translate(4.592 15.601)">
          <path id="Tracé_79" data-name="Tracé 79" d="M636.586,1340.733l-.449,1.42-1.42-.448.448-1.421a.745.745,0,0,1,1.421.449Z" transform="translate(-634.717 -1339.764)" fill="#fff"/>
          <path id="Tracé_80" data-name="Tracé 80" d="M645.115,1343.428l-.449,1.42-1.42-.449.448-1.42a.745.745,0,0,1,1.421.449Z" transform="translate(-637.565 -1340.664)" fill="#fff"/>
          <path id="Tracé_81" data-name="Tracé 81" d="M653.644,1346.122l-.449,1.421-1.42-.449.449-1.42a.745.745,0,1,1,1.42.448Z" transform="translate(-640.414 -1341.564)" fill="#fff"/>
          <path id="Tracé_82" data-name="Tracé 82" d="M662.173,1348.817l-.449,1.42-1.42-.448.449-1.421a.745.745,0,1,1,1.42.449Z" transform="translate(-643.263 -1342.464)" fill="#fff"/>
          <path id="Tracé_83" data-name="Tracé 83" d="M670.7,1351.512l-.448,1.42-1.421-.449.449-1.42a.745.745,0,0,1,1.42.449Z" transform="translate(-646.111 -1343.364)" fill="#fff"/>
          <path id="Tracé_84" data-name="Tracé 84" d="M679.526,1353.14l-.459,1.453c-.522-.051-1.021-.113-1.492-.181a.75.75,0,0,1,.028-.126l.5-1.593a.744.744,0,1,1,1.42.448Z" transform="translate(-649.031 -1343.907)" fill="#fff"/>
        </g>
        <path id="Tracé_85" data-name="Tracé 85" d="M673.445,1329.418c-2,.783-4.616.594-7.535-1.525a44.059,44.059,0,0,1-5.876-5.79,2.98,2.98,0,0,1,.1-4.04l1.593-1.644s5.7,10.05,11.719,13Z" transform="translate(-638.333 -1316.366)" fill="#f9b835"/>
        <path id="Tracé_86" data-name="Tracé 86" d="M662.57,1328.854a.744.744,0,0,1-.485-.934.753.753,0,0,1,.2-.322l4.411-4.073a.745.745,0,1,1,1.012,1.093h0l-4.411,4.073a.743.743,0,0,1-.73.162Z" transform="translate(-639.254 -1318.672)" fill="#fff"/>
        <path id="Tracé_87" data-name="Tracé 87" d="M666.161,1332.334a.745.745,0,0,1-.28-1.257l4.411-4.073a.745.745,0,0,1,1.012,1.093h0l-4.411,4.073A.744.744,0,0,1,666.161,1332.334Z" transform="translate(-640.453 -1319.834)" fill="#fff"/>
      </g>
      <circle id="Ellipse_30" data-name="Ellipse 30" cx="4.353" cy="4.353" r="4.353" transform="translate(631.068 1248.322)" fill="#f90"/>
      <circle id="Ellipse_31" data-name="Ellipse 31" cx="4.353" cy="4.353" r="4.353" transform="translate(640.501 1252.662)" fill="#f9b835"/>
      <circle id="Ellipse_32" data-name="Ellipse 32" cx="4.353" cy="4.353" r="4.353" transform="translate(649.934 1257.002)" fill="#bb4926"/>
      <circle id="Ellipse_33" data-name="Ellipse 33" cx="4.353" cy="4.353" r="4.353" transform="translate(659.367 1261.342)" fill="#445a72"/>
      <circle id="Ellipse_34" data-name="Ellipse 34" cx="4.353" cy="4.353" r="4.353" transform="translate(668.8 1265.682)" fill="#232f3e"/>
      <path id="Tracé_88" data-name="Tracé 88" d="M663.276,1281.608a.653.653,0,0,0,.077,1.04.88.88,0,0,0,.578.18c.229,0,.517-.123.732-.019.2.1.339.344.494.5a3.285,3.285,0,0,0,.651.475c.509.3,1.062.533,1.6.789l6.761,3.247,3.806,1.828a.336.336,0,0,0,.28-.61l-6.11-2.934-3.1-1.491c-.964-.463-1.978-.878-2.905-1.413a2.682,2.682,0,0,1-.666-.539,1.689,1.689,0,0,0-.56-.474,1.316,1.316,0,0,0-.7-.058,1.189,1.189,0,0,1-.332.035.211.211,0,0,1-.083-.026l-.052-.045c-.031-.072-.056-.049-.073.068.318-.286-.064-.839-.385-.55Z" transform="translate(-27.071 -15.337)" fill="#232f3e"/>
      <path id="Tracé_89" data-name="Tracé 89" d="M610.27,1371.412a3.453,3.453,0,0,1-3.269-3.068,1.421,1.421,0,0,0-1.884.7,2.6,2.6,0,0,0,.141,2.4,7.8,7.8,0,0,1,.99,1.912l-.007.016.008-.006v.01l.007-.016a7.777,7.777,0,0,1,2.1-.492A2.6,2.6,0,0,0,610.27,1371.412Z" transform="translate(-7.648 -44.289)" fill="#8c371d"/>
      <g id="Groupe_49" data-name="Groupe 49" transform="translate(602.32 1327.821)">
        <circle id="Ellipse_35" data-name="Ellipse 35" cx="2.466" cy="2.466" r="2.466" transform="translate(2.213 0)" fill="#8c371d"/>
        <path id="Tracé_90" data-name="Tracé 90" d="M616.941,1378.58l-4.429.02,3.53,1.624Z" transform="translate(-612.512 -1375.572)" fill="#8c371d"/>
      </g>
      <g id="Groupe_50" data-name="Groupe 50" transform="translate(611.454 1331.213)">
        <path id="Tracé_91" data-name="Tracé 91" d="M628.069,1381.975l-1.268,1.744,7.95-1.091Z" transform="translate(-626.418 -1380.098)" fill="#aa3b22"/>
        <path id="Tracé_92" data-name="Tracé 92" d="M628.963,1382.932l.611,2.516,5.9-2.5Z" transform="translate(-627.14 -1380.418)" fill="#bb4926"/>
        <path id="Tracé_93" data-name="Tracé 93" d="M627.877,1381.034l-1.65-1.877,8.333,2.53Z" transform="translate(-626.227 -1379.157)" fill="#bb4926"/>
        <path id="Tracé_94" data-name="Tracé 94" d="M628.241,1382.932l-1.44,1.106,1.654-.227Z" transform="translate(-626.418 -1380.418)" fill="#bb4926"/>
      </g>
      <g id="Groupe_51" data-name="Groupe 51" transform="translate(597.882 1266.244)">
        <path id="Tracé_95" data-name="Tracé 95" d="M630.857,1281.609l48.3,21.621-25.237,54.852-48.073-22.118Z" transform="translate(-605.849 -1281.609)" fill="#232f3e"/>
        <path id="Tracé_96" data-name="Tracé 96" d="M625.226,1300.009s5.309-3.941,14.827,2.545,16.747,23.066,34.871,16.044l-8.887,19.316s-5.073,5.722-11.422,5.985c-8.773.364-16.753-7.956-24.428-8.376s-19.5,6.709-23.77,5.369Z" transform="translate(-606.038 -1287.359)" fill="#38485b"/>
      </g>
      <g id="Groupe_53" data-name="Groupe 53" transform="translate(613.322 1290.192)">
        <path id="Tracé_97" data-name="Tracé 97" d="M662.1,1329.592c-6.012-2.218-10.64-9.078-10.64-9.078-2.686,5.063-8.757,3.56-8.757,3.56-7.421-1.838-3.888-4.543-6.586-5.211s-6.046,9.96-6.046,9.96l-1,4.048a1.389,1.389,0,0,0,1.015,1.683l26.312,6.514a30.671,30.671,0,0,0,10.257.477,2.773,2.773,0,0,0,2.313-2.085l.9-3.648C670.541,1333.113,668.009,1331.77,662.1,1329.592Z" transform="translate(-629.031 -1317.989)" fill="#f90"/>
        <path id="Tracé_98" data-name="Tracé 98" d="M670.4,1335.812a29.852,29.852,0,0,1-12.138-.141l-27.661-6.848s3.347-10.628,6.046-9.96-.835,3.373,6.586,5.211c0,0,6.071,1.5,8.757-3.56,0,0,4.628,6.861,10.64,9.078C668.532,1331.77,671.064,1333.113,670.4,1335.812Z" transform="translate(-629.554 -1317.989)" fill="#f90"/>
        <path id="Tracé_99" data-name="Tracé 99" d="M640.329,1322.682c-2,2.908-5.71,2.594-7.563,2.215,1.223-2.952,3.023-6.426,4.6-6.035C639.436,1319.375,637.842,1321.085,640.329,1322.682Z" transform="translate(-630.279 -1317.989)" fill="#f9b835"/>
        <path id="Tracé_100" data-name="Tracé 100" d="M673.1,1340.259a29.849,29.849,0,0,1-12.137-.141l-22.264-5.512s3.7-3.379,8.424-2.21,7.087,3.187,13.159,4.69a14.333,14.333,0,0,0,9.528-1.219C672.489,1337.166,673.566,1338.387,673.1,1340.259Z" transform="translate(-632.261 -1322.437)" fill="#f9b835"/>
        <g id="Groupe_52" data-name="Groupe 52" transform="translate(4.429 15.522)">
          <path id="Tracé_101" data-name="Tracé 101" d="M637.365,1341.734l-.334,1.35-1.349-.334.334-1.349a.695.695,0,1,1,1.349.334Z" transform="translate(-635.682 -1340.872)" fill="#fff"/>
          <path id="Tracé_102" data-name="Tracé 102" d="M645.469,1343.741l-.334,1.349-1.349-.334.334-1.349a.695.695,0,1,1,1.349.334Z" transform="translate(-638.389 -1341.542)" fill="#fff"/>
          <path id="Tracé_103" data-name="Tracé 103" d="M653.573,1345.747l-.334,1.349-1.349-.334.334-1.349a.7.7,0,0,1,1.349.334Z" transform="translate(-641.095 -1342.212)" fill="#fff"/>
          <path id="Tracé_104" data-name="Tracé 104" d="M661.677,1347.753l-.334,1.349-1.349-.334.334-1.349a.7.7,0,1,1,1.349.334Z" transform="translate(-643.801 -1342.882)" fill="#fff"/>
          <path id="Tracé_105" data-name="Tracé 105" d="M669.78,1349.76l-.334,1.349-1.349-.334.334-1.349a.695.695,0,1,1,1.349.334Z" transform="translate(-646.508 -1343.552)" fill="#fff"/>
          <path id="Tracé_106" data-name="Tracé 106" d="M678.1,1350.753l-.342,1.38c-.49-.017-.958-.045-1.4-.081a.721.721,0,0,1,.019-.119l.375-1.514a.695.695,0,0,1,1.349.334Z" transform="translate(-649.268 -1343.884)" fill="#fff"/>
        </g>
        <path id="Tracé_107" data-name="Tracé 107" d="M671.081,1328.981c-1.82.848-4.265.825-7.108-.975a41.133,41.133,0,0,1-5.815-5.046,2.781,2.781,0,0,1-.147-3.769l1.387-1.625s5.907,9.023,11.684,11.416Z" transform="translate(-638.488 -1317.566)" fill="#f9b835"/>
        <path id="Tracé_108" data-name="Tracé 108" d="M660.952,1329.017a.7.7,0,0,1-.336-1.154l3.868-4.055a.7.7,0,0,1,1.007.958h0l-3.868,4.054a.7.7,0,0,1-.671.2Z" transform="translate(-639.516 -1319.579)" fill="#fff"/>
        <path id="Tracé_109" data-name="Tracé 109" d="M664.5,1332.046a.695.695,0,0,1-.335-1.154l3.868-4.055a.7.7,0,0,1,1.007.958h0l-3.868,4.055A.694.694,0,0,1,664.5,1332.046Z" transform="translate(-640.702 -1320.59)" fill="#fff"/>
      </g>
      <g id="Groupe_59" data-name="Groupe 59" transform="translate(625.826 1259.629)">
        <circle id="Ellipse_36" data-name="Ellipse 36" cx="4.353" cy="4.353" r="4.353" transform="translate(0)" fill="#232f3e"/>
        <g id="Groupe_58" data-name="Groupe 58" transform="translate(0.496 0.298)">
          <g id="Groupe_54" data-name="Groupe 54" transform="translate(4.402 1.075)">
            <path id="Tracé_110" data-name="Tracé 110" d="M655.511,1275.5a.533.533,0,0,1-.182-.048.272.272,0,0,1-.159-.16.333.333,0,0,1,.031-.239l.605-1.317.253.117-.6,1.3a.128.128,0,0,0-.015.086.09.09,0,0,0,.057.055.646.646,0,0,0,.089.033Z" transform="translate(-655.159 -1273.738)" fill="#fff"/>
          </g>
          <g id="Groupe_55" data-name="Groupe 55" transform="translate(5.483 4.427)">
            <path id="Tracé_111" data-name="Tracé 111" d="M657.124,1279.99a.545.545,0,0,1-.317-.332.789.789,0,0,1,.39-.849.628.628,0,0,1,.775.357.661.661,0,0,1-.056.488.668.668,0,0,1-.334.361A.549.549,0,0,1,657.124,1279.99Zm.092-.2q.27.124.444-.255t-.1-.5q-.27-.124-.444.253C657,1279.54,657.035,1279.708,657.216,1279.791Z" transform="translate(-656.782 -1278.771)" fill="#fff"/>
          </g>
          <g id="Groupe_56" data-name="Groupe 56" transform="translate(1.077 2.4)">
            <path id="Tracé_112" data-name="Tracé 112" d="M650.508,1276.946a.548.548,0,0,1-.317-.331.789.789,0,0,1,.391-.849.627.627,0,0,1,.775.356.789.789,0,0,1-.391.849A.547.547,0,0,1,650.508,1276.946Zm.092-.2q.27.124.444-.255t-.1-.5q-.27-.124-.443.253T650.6,1276.747Z" transform="translate(-650.166 -1275.727)" fill="#fff"/>
          </g>
          <g id="Groupe_57" data-name="Groupe 57" transform="translate(2.093 5.283)">
            <path id="Tracé_113" data-name="Tracé 113" d="M652.6,1281.225a.519.519,0,0,1-.37-.026.426.426,0,0,1-.25-.295.685.685,0,0,1,.064-.452.8.8,0,0,1,.187-.263.494.494,0,0,1,.244-.125.447.447,0,0,1,.27.039.5.5,0,0,1,.264.28l.067-.088.214.1-.467,1.015a.541.541,0,0,1-.791.292.908.908,0,0,1-.334-.26l.083-.18a1.273,1.273,0,0,0,.328.231.345.345,0,0,0,.267.033.367.367,0,0,0,.184-.207Zm-.205-.186a.436.436,0,0,0,.278.027l.252-.549a.454.454,0,0,0-.2-.186.249.249,0,0,0-.233,0,.489.489,0,0,0-.184.234Q652.135,1280.921,652.39,1281.039Z" transform="translate(-651.692 -1280.057)" fill="#fff"/>
          </g>
          <path id="Tracé_114" data-name="Tracé 114" d="M654.963,1279.84a.094.094,0,0,1-.051-.055l-2.827-7.528a.1.1,0,0,1,.184-.069l2.827,7.529a.1.1,0,0,1-.057.126A.1.1,0,0,1,654.963,1279.84Z" transform="translate(-649.728 -1272.124)" fill="#fff"/>
          <path id="Tracé_115" data-name="Tracé 115" d="M648.606,1278.668a.1.1,0,0,1-.051-.055.1.1,0,0,1,.057-.127l7.529-2.827a.1.1,0,0,1,.069.184l-7.528,2.827A.1.1,0,0,1,648.606,1278.668Z" transform="translate(-648.549 -1273.303)" fill="#fff"/>
        </g>
      </g>
      <circle id="Ellipse_37" data-name="Ellipse 37" cx="2.657" cy="2.657" r="2.657" transform="translate(630.645 1300.883)" fill="#fff"/>
      <g id="Groupe_60" data-name="Groupe 60" transform="translate(620.325 1307.832)">
        <path id="Tracé_116" data-name="Tracé 116" d="M654.317,1350.178l-1.858-5.025-5.025,1.858a.482.482,0,1,1-.334-.9l5.477-2.025a.481.481,0,0,1,.619.285l2.025,5.477a.482.482,0,1,1-.9.334Z" transform="translate(-641.963 -1344.052)" fill="#fff"/>
        <path id="Tracé_117" data-name="Tracé 117" d="M653.827,1354.138a.485.485,0,0,0-.261-.3l-11.254-5.177a.482.482,0,0,0-.663.3l-2.082,7a.481.481,0,0,0,.26.575l9.378,4.314a.481.481,0,0,0,.606-.176l3.958-6.133A.482.482,0,0,0,653.827,1354.138ZM643.2,1355.28a.482.482,0,0,1-.875-.4l1.294-2.814a.482.482,0,1,1,.876.4Zm1.875.863a.482.482,0,1,1-.875-.4l1.294-2.813a.482.482,0,1,1,.876.4Zm1.876.863a.482.482,0,1,1-.876-.4l1.295-2.813a.482.482,0,1,1,.875.4Zm1.876.863a.482.482,0,0,1-.876-.4l1.295-2.814a.482.482,0,0,1,.875.4Z" transform="translate(-639.546 -1345.575)" fill="#fff"/>
        <path id="Tracé_118" data-name="Tracé 118" d="M654.908,1354.093l-14.068-6.472a.482.482,0,0,1-.236-.639l.863-1.876a.482.482,0,0,1,.639-.236l14.067,6.472a.482.482,0,0,1,.236.639l-.862,1.875A.482.482,0,0,1,654.908,1354.093Z" transform="translate(-639.884 -1344.31)" fill="#fff"/>
      </g>
      <path id="Tracé_119" data-name="Tracé 119" d="M687.208,1395.381a6.679,6.679,0,0,0,9.408-6.917l-2.28-17.8a6.666,6.666,0,0,0-.741-2.312l-7.5-13.962a6.672,6.672,0,0,0-2.446-2.564l-9.493-5.7a6.677,6.677,0,0,0-6.872,11.449l7.918,4.752,6.049,11.255,2.123,16.576A6.673,6.673,0,0,0,687.208,1395.381Z" transform="translate(-27.401 -36.594)" fill="#f8bd83"/>
    </g>
    <g id="Groupe_43" data-name="Groupe 43" transform="translate(568.198 -538.99)">
      <g id="Groupe_33" data-name="Groupe 33" transform="translate(1185.462 1200.267)">
        <path id="Tracé_53" data-name="Tracé 53" d="M1448.079,1311.512s9.118-13.463,16.032-5.664c4.593,5.181-4.593,10.412-8.033,4.857-2.941-4.75,2.568-8.287,7.285-10.391,6.139-2.739,7.732,1.35,3.778,3.039s-4.413-4.3-1.171-7.614" transform="translate(-1342.625 -1295.739)" fill="none" stroke="#bb4926" stroke-width="1.902"/>
        <path id="Tracé_54" data-name="Tracé 54" d="M1410.192,1440.582l-4.875,21.876-7.221,1.47.319-14.786Z" transform="translate(-1312.713 -1382.42)" fill="#bf4528"/>
        <path id="Tracé_55" data-name="Tracé 55" d="M1404.2,1496.936l-1.089-5.352-7.251,2.866-1.5,4.388Z" transform="translate(-1310.481 -1412.942)" fill="#bb4926"/>
        <path id="Tracé_56" data-name="Tracé 56" d="M1267.33,1461.18l1.35,18.427,7.794-.2,5.042-14.955Z" transform="translate(-1234.456 -1394.747)" fill="#bf4528"/>
        <path id="Tracé_57" data-name="Tracé 57" d="M1216.631,1335.215s.055-23.009,24.9-30.088,47.765-10.1,58.5-6.854c12.688,3.84,35.846,29.6,14.557,52.888-15.153,16.575-45.939,19.271-63.939,21.1C1225.824,1374.789,1218.407,1358.528,1216.631,1335.215Z" transform="translate(-1204.115 -1296.476)" fill="#d64b34"/>
        <g id="Groupe_32" data-name="Groupe 32" transform="translate(0 33.556)">
          <ellipse id="Ellipse_16" data-name="Ellipse 16" cx="8.544" cy="12.382" rx="8.544" ry="12.382" transform="translate(8.174 3.408) rotate(-11.506)" fill="#bb4926"/>
          <path id="Tracé_58" data-name="Tracé 58" d="M1216.449,1383.242l-7.871,2.613,5.411,23.124,8.613-1.718Z" transform="translate(-1199.296 -1381.661)" fill="#bb4926"/>
          <ellipse id="Ellipse_17" data-name="Ellipse 17" cx="9.472" cy="11.887" rx="9.472" ry="11.887" transform="translate(0 6.083) rotate(-11.506)" fill="#d64b34"/>
          <ellipse id="Ellipse_18" data-name="Ellipse 18" cx="1.362" cy="2.167" rx="1.362" ry="2.167" transform="translate(5.787 15.267) rotate(-11.506)" fill="#783728"/>
          <ellipse id="Ellipse_19" data-name="Ellipse 19" cx="1.362" cy="2.167" rx="1.362" ry="2.167" transform="translate(12.399 13.921) rotate(-11.506)" fill="#783728"/>
        </g>
        <path id="Tracé_59" data-name="Tracé 59" d="M1292.58,1315.316l8.806-7.248.315,12.7Z" transform="translate(-1249.567 -1303.117)" fill="#bb4926"/>
        <path id="Tracé_60" data-name="Tracé 60" d="M1249.4,1311.947l-9.82-7.179,1.422,12.615Z" transform="translate(-1217.85 -1301.142)" fill="#bb4926"/>
        <ellipse id="Ellipse_20" data-name="Ellipse 20" cx="2.715" cy="3.591" rx="2.715" ry="3.591" transform="translate(35.142 28.442) rotate(-11.506)" fill="#232f3e"/>
        <path id="Tracé_61" data-name="Tracé 61" d="M1326.685,1309.94a111.88,111.88,0,0,1,16.226-3.3" transform="translate(-1269.977 -1302.261)" fill="none" stroke="#fff" stroke-width="4.034"/>
        <path id="Tracé_62" data-name="Tracé 62" d="M1302,1462.449l-.56,22.191,7.794.839,7.827-16.461Z" transform="translate(-1254.868 -1395.507)" fill="#d64b34"/>
        <path id="Tracé_63" data-name="Tracé 63" d="M1294.587,1514.941l2.872-9.168,8.917,3.016.229,4.982Z" transform="translate(-1250.768 -1421.433)" fill="#bb4926"/>
        <path id="Tracé_64" data-name="Tracé 64" d="M1264.751,1513.832l2.386-7.057,7.794-.2-.322,5.246Z" transform="translate(-1232.912 -1421.916)" fill="#bb4926"/>
        <path id="Tracé_65" data-name="Tracé 65" d="M1439.892,1422.627l.26,24.587-6.846,3.819-4.709-16.473Z" transform="translate(-1330.967 -1371.675)" fill="#d64b34"/>
        <path id="Tracé_66" data-name="Tracé 66" d="M1441.577,1486.237l.351-5.945-7.561,2.74-2.9,7.745Z" transform="translate(-1332.686 -1406.185)" fill="#bb4926"/>
        <text id="_" data-name="€" transform="translate(62.013 56.677) rotate(-8.913)" fill="#002d3f" font-size="36" font-family="AmazonEmber-Bold, Amazon Ember" font-weight="700"><tspan x="0" y="0">€</tspan></text>
      </g>
      <g id="Groupe_36" data-name="Groupe 36" transform="translate(1239.197 1178.706)">
        <circle id="Ellipse_21" data-name="Ellipse 21" cx="13.794" cy="13.794" r="13.794" fill="#f9b835"/>
        <circle id="Ellipse_22" data-name="Ellipse 22" cx="10.989" cy="10.989" r="10.989" transform="translate(2.806 2.806)" fill="#f90"/>
        <g id="Groupe_35" data-name="Groupe 35" transform="translate(7.38 8.956)">
          <path id="Tracé_67" data-name="Tracé 67" d="M1350.127,1273.054a4.839,4.839,0,1,1-.073-7.791" transform="translate(-1340.485 -1264.347)" fill="none" stroke="#f9b835" stroke-linecap="round" stroke-linejoin="round" stroke-width="3.41"/>
          <g id="Groupe_34" data-name="Groupe 34" transform="translate(0 3.622)">
            <line id="Ligne_19" data-name="Ligne 19" x2="6.981" fill="none" stroke="#f9b835" stroke-linecap="round" stroke-linejoin="round" stroke-width="3.41"/>
            <line id="Ligne_20" data-name="Ligne 20" x2="6.981" transform="translate(0 2.433)" fill="none" stroke="#f9b835" stroke-linecap="round" stroke-linejoin="round" stroke-width="3.41"/>
          </g>
        </g>
      </g>
      <g id="Groupe_39" data-name="Groupe 39" transform="translate(1258.386 1165.79)">
        <circle id="Ellipse_23" data-name="Ellipse 23" cx="13.794" cy="13.794" r="13.794" fill="#f9b835"/>
        <circle id="Ellipse_24" data-name="Ellipse 24" cx="10.989" cy="10.989" r="10.989" transform="translate(2.806 2.806)" fill="#f90"/>
        <g id="Groupe_38" data-name="Groupe 38" transform="translate(7.36 9.067)">
          <path id="Tracé_68" data-name="Tracé 68" d="M1396.322,1241.94a4.839,4.839,0,1,1,2.657-7.324" transform="translate(-1388.219 -1232.459)" fill="none" stroke="#f9b835" stroke-linecap="round" stroke-linejoin="round" stroke-width="3.41"/>
          <g id="Groupe_37" data-name="Groupe 37" transform="translate(0 1.344)">
            <line id="Ligne_21" data-name="Ligne 21" x2="6.539" y2="2.443" transform="translate(0.851)" fill="none" stroke="#f9b835" stroke-linecap="round" stroke-linejoin="round" stroke-width="3.41"/>
            <line id="Ligne_22" data-name="Ligne 22" x2="6.539" y2="2.443" transform="translate(0 2.279)" fill="none" stroke="#f9b835" stroke-linecap="round" stroke-linejoin="round" stroke-width="3.41"/>
          </g>
        </g>
      </g>
      <g id="Groupe_42" data-name="Groupe 42" transform="translate(1241.437 1136.206)">
        <circle id="Ellipse_25" data-name="Ellipse 25" cx="11.523" cy="11.523" r="11.523" fill="#f9b835"/>
        <circle id="Ellipse_26" data-name="Ellipse 26" cx="9.179" cy="9.179" r="9.179" transform="translate(2.344 2.344)" fill="#f90"/>
        <g id="Groupe_41" data-name="Groupe 41" transform="translate(6.148 7.573)">
          <path id="Tracé_69" data-name="Tracé 69" d="M1349.3,1162.986a4.042,4.042,0,1,1,2.22-6.118" transform="translate(-1342.527 -1155.067)" fill="none" stroke="#f9b835" stroke-linecap="round" stroke-linejoin="round" stroke-width="2.849"/>
          <g id="Groupe_40" data-name="Groupe 40" transform="translate(0 1.123)">
            <line id="Ligne_23" data-name="Ligne 23" x2="5.462" y2="2.041" transform="translate(0.711)" fill="none" stroke="#f9b835" stroke-linecap="round" stroke-linejoin="round" stroke-width="2.849"/>
            <line id="Ligne_24" data-name="Ligne 24" x2="5.462" y2="2.041" transform="translate(0 1.904)" fill="none" stroke="#f9b835" stroke-linecap="round" stroke-linejoin="round" stroke-width="2.849"/>
          </g>
        </g>
      </g>
    </g>
    <g id="Groupe_44" data-name="Groupe 44" transform="translate(44 58.328)">
      <g id="Groupe_31" data-name="Groupe 31" transform="translate(105.155 917.851) rotate(-14)">
        <path id="Tracé_49" data-name="Tracé 49" d="M13.637,66.373,0,27.646,61.843,2.828a39.3,39.3,0,0,1,27.668-.6l14.979,7.1a4.366,4.366,0,0,1,2.06,5.848L99.326,30.1A39.3,39.3,0,0,1,77.385,46.966Z" transform="translate(14.412 0)" fill="#f9b835"/>
        <circle id="Ellipse_15" data-name="Ellipse 15" cx="13.172" cy="13.172" r="13.172" transform="translate(72.96 10.982)" fill="#f90"/>
        <rect id="Rectangle_40" data-name="Rectangle 40" width="4.622" height="33.278" transform="translate(43.133 36.846) rotate(70.601)" fill="#f90"/>
        <path id="Tracé_50" data-name="Tracé 50" d="M36.737,5.9S27.9-3.9,0,1.76l14.412,13.1Z" transform="translate(0 12.789)" fill="#f90"/>
        <path id="Tracé_51" data-name="Tracé 51" d="M26.04,0S25.289,13.173,0,26.243L3.026,7.006Z" transform="translate(25.042 59.421)" fill="#f90"/>
      </g>
      <path id="Tracé_52" data-name="Tracé 52" d="M1491.885,2444.391s-76.66,41.643-124.927-33.124c-58.528-90.661-150.48,25.553-107.892,28.392,10.214.681,57.732-32.177,26.638-63.248-14.074-14.063-34.753-33.515-34.753-33.515" transform="translate(-1371.791 -1475.896)" fill="none" stroke="#f90" stroke-width="2.198" stroke-dasharray="10.988"/>
    </g>
    <g id="Groupe_62" data-name="Groupe 62" transform="translate(-32.96 -573.188) rotate(-9)">
      <path id="Tracé_120" data-name="Tracé 120" d="M406.8,1310.339l-23.73-19.252-19.252,23.73a2.749,2.749,0,0,1-4.269-3.463l20.984-25.864a2.748,2.748,0,0,1,3.866-.4l25.864,20.984a2.748,2.748,0,1,1-3.463,4.268Z" transform="translate(-29.711)" fill="#232f3e"/>
      <path id="Tracé_121" data-name="Tracé 121" d="M408.132,1362.316a2.748,2.748,0,0,0-2.163-.727l-70.272,7.321a2.749,2.749,0,0,0-2.381,3.4l10.127,40.382a2.748,2.748,0,0,0,2.95,2.065l58.561-6.1a2.748,2.748,0,0,0,2.461-2.629l1.586-41.6A2.747,2.747,0,0,0,408.132,1362.316Zm-48.8,36.492a2.748,2.748,0,1,1-5.467.569l-1.83-17.568a2.748,2.748,0,0,1,5.467-.569Zm11.712-1.22a2.749,2.749,0,1,1-5.468.57l-1.83-17.568a2.749,2.749,0,0,1,5.467-.57Zm11.712-1.22a2.748,2.748,0,1,1-5.467.569l-1.831-17.568a2.749,2.749,0,0,1,5.467-.57Zm11.712-1.22a2.749,2.749,0,0,1-5.468.569l-1.83-17.568a2.748,2.748,0,1,1,5.467-.569Z" transform="translate(-14.502 -45.626)" fill="#f9b835"/>
      <path id="Tracé_122" data-name="Tracé 122" d="M400.82,1347.837l-87.841,9.151a2.748,2.748,0,0,1-3.018-2.449l-1.22-11.712a2.748,2.748,0,0,1,2.449-3.019l87.841-9.151a2.749,2.749,0,0,1,3.018,2.449l1.22,11.712A2.749,2.749,0,0,1,400.82,1347.837Z" transform="translate(0 -27.322)" fill="#f90"/>
    </g>
    <path id="Tracé_123" data-name="Tracé 123" d="M1684.955,1338.677c-31.19,0-56.476,26.149-56.476,58.4s25.286,58.4,56.476,58.4,56.476-26.148,56.476-58.4S1716.147,1338.677,1684.955,1338.677Zm0,91.509c-17.651,0-32.011-14.851-32.011-33.1s14.36-33.1,32.011-33.1,32.011,14.851,32.011,33.1S1702.606,1430.185,1684.955,1430.185Z" transform="translate(-1669.438 -715.486)" fill="#232f3e"/>
    <g id="Groupe_64" data-name="Groupe 64" transform="translate(1798.236 971.666)">
      <rect id="Rectangle_51" data-name="Rectangle 51" width="27.524" height="27.524" transform="translate(21.265 22.705) rotate(-55.579)" fill="#f9b835"/>
      <line id="Ligne_27" data-name="Ligne 27" x1="19.221" y2="3.59" transform="translate(0 25.347)" fill="none" stroke="#232f3e" stroke-width="0.97"/>
      <line id="Ligne_28" data-name="Ligne 28" x1="12.339" y2="2.304" transform="translate(4.244 21.319)" fill="none" stroke="#232f3e" stroke-width="0.97"/>
    </g>
    <rect id="Rectangle_49" data-name="Rectangle 49" width="38.872" height="38.872" transform="translate(840 1045.562) rotate(-150)" fill="#f9b835"/>
    <rect id="Rectangle_52" data-name="Rectangle 52" width="28.9" height="28.9" transform="translate(832.559 1019.436) rotate(-69.516)" fill="none" stroke="#bb4926" stroke-width="1.483"/>
    <g id="Groupe_63" data-name="Groupe 63" transform="translate(206 615)">
      <rect id="Rectangle_50" data-name="Rectangle 50" width="31.286" height="31.286" transform="translate(23.615 10.723) rotate(-18.888)" fill="#f9b835"/>
      <line id="Ligne_25" data-name="Ligne 25" x1="19.958" y1="9.783" transform="translate(0 1.961)" fill="none" stroke="#232f3e" stroke-width="0.97"/>
      <line id="Ligne_26" data-name="Ligne 26" x1="12.812" y1="6.28" transform="translate(7.477)" fill="none" stroke="#232f3e" stroke-width="0.97"/>
    </g>
  </g>
</svg>
